<svg width="20" height="19" viewBox="0 0 20 19" fill="none" xmlns="http://www.w3.org/2000/svg">
<path d="M18.6023 8.10261L17.7255 11.8425C16.9739 15.0723 15.4887 16.3786 12.6973 16.1102C12.2499 16.0744 11.7668 15.9939 11.2479 15.8686L9.74478 15.5107C6.01388 14.625 4.85972 12.7819 5.73652 9.04204L6.61333 5.29325C6.79227 4.53276 7.00699 3.87068 7.2754 3.32492C8.3222 1.15974 10.1027 0.578188 13.091 1.285L14.5851 1.63393C18.3339 2.51074 19.4791 4.36277 18.6023 8.10261Z" stroke="#DF95F9" stroke-width="1.25" stroke-linecap="round" stroke-linejoin="round"/>
<path d="M12.6973 16.1101C12.1426 16.4859 11.4447 16.799 10.5948 17.0764L9.18114 17.5416C5.62919 18.6868 3.75926 17.7295 2.6051 14.1775L1.45989 10.6435C0.314672 7.09151 1.26305 5.21264 4.81501 4.06743L6.22864 3.60219C6.59546 3.48587 6.94439 3.38746 7.27543 3.32483C7.00702 3.8706 6.7923 4.53267 6.61336 5.29317L5.73655 9.04196C4.85975 12.7818 6.01391 14.6249 9.7448 15.5106L11.2479 15.8685C11.7668 15.9938 12.25 16.0743 12.6973 16.1101Z" stroke="#DF95F9" stroke-width="1.25" stroke-linecap="round" stroke-linejoin="round"/>
</svg>
