<svg width="18" height="20" viewBox="0 0 18 20" fill="none" xmlns="http://www.w3.org/2000/svg">
<path d="M5.49524 1V3.69715" stroke="#DF95F9" stroke-width="1.25" stroke-miterlimit="10" stroke-linecap="round" stroke-linejoin="round"/>
<path d="M12.6877 1V3.69715" stroke="#DF95F9" stroke-width="1.25" stroke-miterlimit="10" stroke-linecap="round" stroke-linejoin="round"/>
<path d="M12.6877 2.34863C15.6815 2.51046 17.1829 3.65226 17.1829 7.87779V13.4339C17.1829 17.138 16.2839 18.9901 11.7886 18.9901H6.3943C1.89905 18.9901 1 17.138 1 13.4339V7.87779C1 3.65226 2.50141 2.51945 5.49525 2.34863H12.6877Z" stroke="#DF95F9" stroke-width="1.25" stroke-miterlimit="10" stroke-linecap="round" stroke-linejoin="round"/>
<path d="M16.9582 15.0251H1.22479" stroke="#DF95F9" stroke-width="1.25" stroke-miterlimit="10" stroke-linecap="round" stroke-linejoin="round"/>
<path d="M9.09144 6.61902C7.98561 6.61902 7.05059 7.22138 7.05059 8.39015C7.05059 8.94756 7.31132 9.37011 7.7069 9.63983C7.15848 9.96349 6.84381 10.4849 6.84381 11.0963C6.84381 12.2111 7.69791 12.9034 9.09144 12.9034C10.476 12.9034 11.3391 12.2111 11.3391 11.0963C11.3391 10.4849 11.0244 9.9545 10.467 9.63983C10.8716 9.36112 11.1233 8.94756 11.1233 8.39015C11.1233 7.22138 10.1973 6.61902 9.09144 6.61902ZM9.09144 9.17232C8.62393 9.17232 8.28229 8.89362 8.28229 8.45308C8.28229 8.00356 8.62393 7.74283 9.09144 7.74283C9.55894 7.74283 9.90058 8.00356 9.90058 8.45308C9.90058 8.89362 9.55894 9.17232 9.09144 9.17232ZM9.09144 11.7886C8.49806 11.7886 8.06652 11.4919 8.06652 10.9524C8.06652 10.413 8.49806 10.1253 9.09144 10.1253C9.68481 10.1253 10.1164 10.422 10.1164 10.9524C10.1164 11.4919 9.68481 11.7886 9.09144 11.7886Z" fill="#DF95F9"/>
</svg>
