<svg width="18" height="18" viewBox="0 0 18 18" fill="none" xmlns="http://www.w3.org/2000/svg">
<path d="M11.4 0.999999L6.6 0.999999C2.6 0.999999 1 2.6 1 6.6L1 11.4C1 15.4 2.6 17 6.6 17L11.4 17C15.4 17 17 15.4 17 11.4L17 6.6C17 2.6 15.4 1 11.4 0.999999Z" stroke="#DF95F9" stroke-width="1.25" stroke-linecap="round" stroke-linejoin="round"/>
<path d="M14.5882 12.4117H10.8823" stroke="#DF95F9" stroke-miterlimit="10" stroke-linecap="round" stroke-linejoin="round"/>
<path d="M5.58824 12.4117H4" stroke="#DF95F9" stroke-miterlimit="10" stroke-linecap="round" stroke-linejoin="round"/>
<path d="M14.5882 6.58826H13" stroke="#DF95F9" stroke-miterlimit="10" stroke-linecap="round" stroke-linejoin="round"/>
<path d="M7.70588 6.58826H4" stroke="#DF95F9" stroke-miterlimit="10" stroke-linecap="round" stroke-linejoin="round"/>
<path d="M6.64708 10.8235H9.82355C10.4059 10.8235 10.8824 11.0882 10.8824 11.8823V12.9411C10.8824 13.7353 10.4059 14 9.82355 14H6.64708C6.06473 14 5.58826 13.7353 5.58826 12.9411V11.8823C5.58826 11.0882 6.06473 10.8235 6.64708 10.8235Z" stroke="#DF95F9" stroke-miterlimit="10" stroke-linecap="round" stroke-linejoin="round"/>
<path d="M8.7647 5H11.9412C12.5235 5 13 5.26471 13 6.05882V7.11765C13 7.91176 12.5235 8.17647 11.9412 8.17647H8.7647C8.18234 8.17647 7.70587 7.91176 7.70587 7.11765V6.05882C7.70587 5.26471 8.18234 5 8.7647 5Z" stroke="#DF95F9" stroke-miterlimit="10" stroke-linecap="round" stroke-linejoin="round"/>
</svg>
