<svg width="18" height="18" viewBox="0 0 18 18" fill="none" xmlns="http://www.w3.org/2000/svg">
<path d="M5.43998 7.07998L5.43998 11.8C5.43998 12.24 5.79998 12.6 6.23998 12.6L8.56 12.6" stroke="#DF95F9" stroke-width="1.25" stroke-linecap="round" stroke-linejoin="round"/>
<path d="M7.36 13.8L8.79999 12.6L7.36 11.4" stroke="#DF95F9" stroke-width="1.25" stroke-linecap="round" stroke-linejoin="round"/>
<path d="M12.56 10.4399L12.56 7.07996" stroke="#DF95F9" stroke-width="1.25" stroke-linecap="round" stroke-linejoin="round"/>
<path d="M12.44 10.6801C11.5784 10.6801 10.88 11.3785 10.88 12.24C10.88 13.1016 11.5784 13.8 12.44 13.8C13.3016 13.8 14 13.1016 14 12.24C14 11.3785 13.3016 10.6801 12.44 10.6801Z" stroke="#DF95F9" stroke-width="1.25" stroke-linecap="round" stroke-linejoin="round"/>
<path d="M12.56 4.19995C11.7647 4.19995 11.12 4.84465 11.12 5.63994C11.12 6.43523 11.7647 7.07996 12.56 7.07996C13.3553 7.07996 14 6.43523 14 5.63994C14 4.84465 13.3553 4.19995 12.56 4.19995Z" stroke="#DF95F9" stroke-width="1.25" stroke-linecap="round" stroke-linejoin="round"/>
<path d="M5.44001 4.19995C4.64473 4.19995 4.00002 4.84465 4.00002 5.63994C4.00002 6.43523 4.64472 7.07996 5.44001 7.07996C6.2353 7.07996 6.88 6.43523 6.88001 5.63994C6.88001 4.84465 6.2353 4.19995 5.44001 4.19995Z" stroke="#DF95F9" stroke-width="1.25" stroke-linecap="round" stroke-linejoin="round"/>
<path d="M11.4 0.999999L6.6 0.999999C2.6 0.999999 1 2.6 1 6.6L1 11.4C1 15.4 2.6 17 6.6 17L11.4 17C15.4 17 17 15.4 17 11.4L17 6.6C17 2.6 15.4 1 11.4 0.999999Z" stroke="#DF95F9" stroke-width="1.25" stroke-linecap="round" stroke-linejoin="round"/>
</svg>
